<svg xmlns="http://www.w3.org/2000/svg" xmlns:xlink="http://www.w3.org/1999/xlink" width="500" zoomAndPan="magnify" viewBox="0 0 375 374.999991" height="500" preserveAspectRatio="xMidYMid meet" version="1.0"><defs><filter x="0%" y="0%" width="100%" height="100%" id="06586dc412"><feColorMatrix values="0 0 0 0 1 0 0 0 0 1 0 0 0 0 1 0 0 0 1 0" color-interpolation-filters="sRGB"/></filter><mask id="687bfc2273"><g filter="url(#06586dc412)"><rect x="-37.5" width="450" fill="#000000" y="-37.499999" height="449.999989" fill-opacity="0.8"/></g></mask><clipPath id="d630cfdc02"><path d="M 1.046875 1.042969 L 181 1.042969 L 181 265.972656 L 1.046875 265.972656 Z M 1.046875 1.042969 " clip-rule="nonzero"/></clipPath><clipPath id="77d4dac3d2"><path d="M 38.546875 1.042969 L 143.121094 1.042969 C 163.832031 1.042969 180.621094 17.832031 180.621094 38.542969 L 180.621094 227.878906 C 180.621094 248.589844 163.832031 265.378906 143.121094 265.378906 L 38.546875 265.378906 C 17.835938 265.378906 1.046875 248.589844 1.046875 227.878906 L 1.046875 38.542969 C 1.046875 17.832031 17.835938 1.042969 38.546875 1.042969 " clip-rule="nonzero"/></clipPath><clipPath id="6f3098fbab"><rect x="0" width="182" y="0" height="267"/></clipPath><mask id="95030905d9"><g filter="url(#06586dc412)"><rect x="-37.5" width="450" fill="#000000" y="-37.499999" height="449.999989" fill-opacity="0.8"/></g></mask><clipPath id="c51994bd27"><path d="M 0.941406 0.863281 L 181 0.863281 L 181 265.792969 L 0.941406 265.792969 Z M 0.941406 0.863281 " clip-rule="nonzero"/></clipPath><clipPath id="e19ad49b3f"><path d="M 38.441406 0.863281 L 143.019531 0.863281 C 163.730469 0.863281 180.519531 17.65625 180.519531 38.363281 L 180.519531 227.699219 C 180.519531 248.410156 163.730469 265.199219 143.019531 265.199219 L 38.441406 265.199219 C 17.734375 265.199219 0.941406 248.410156 0.941406 227.699219 L 0.941406 38.363281 C 0.941406 17.65625 17.734375 0.863281 38.441406 0.863281 " clip-rule="nonzero"/></clipPath><clipPath id="03a2f2b90c"><rect x="0" width="182" y="0" height="266"/></clipPath><mask id="a4c4349d1b"><g filter="url(#06586dc412)"><rect x="-37.5" width="450" fill="#000000" y="-37.499999" height="449.999989" fill-opacity="0.8"/></g></mask><clipPath id="1e7f803b73"><path d="M 1.121094 0.878906 L 181 0.878906 L 181 265.808594 L 1.121094 265.808594 Z M 1.121094 0.878906 " clip-rule="nonzero"/></clipPath><clipPath id="d407323a74"><path d="M 38.621094 0.878906 L 143.195312 0.878906 C 163.90625 0.878906 180.695312 17.667969 180.695312 38.378906 L 180.695312 227.714844 C 180.695312 248.425781 163.90625 265.214844 143.195312 265.214844 L 38.621094 265.214844 C 17.910156 265.214844 1.121094 248.425781 1.121094 227.714844 L 1.121094 38.378906 C 1.121094 17.667969 17.910156 0.878906 38.621094 0.878906 " clip-rule="nonzero"/></clipPath><clipPath id="543f71290f"><rect x="0" width="182" y="0" height="266"/></clipPath></defs><g mask="url(#687bfc2273)"><g transform="matrix(1, 0, 0, 1, 115, 85)"><g clip-path="url(#6f3098fbab)"><g clip-path="url(#d630cfdc02)"><g clip-path="url(#77d4dac3d2)"><path fill="#034397" d="M 1.046875 1.042969 L 180.535156 1.042969 L 180.535156 265.308594 L 1.046875 265.308594 Z M 1.046875 1.042969 " fill-opacity="1" fill-rule="nonzero"/></g></g></g></g></g><g mask="url(#95030905d9)"><g transform="matrix(1, 0, 0, 1, 92, 49)"><g clip-path="url(#03a2f2b90c)"><g clip-path="url(#c51994bd27)"><g clip-path="url(#e19ad49b3f)"><path fill="#0029ff" d="M 0.941406 0.863281 L 180.433594 0.863281 L 180.433594 265.132812 L 0.941406 265.132812 Z M 0.941406 0.863281 " fill-opacity="1" fill-rule="nonzero"/></g></g></g></g></g><g mask="url(#a4c4349d1b)"><g transform="matrix(1, 0, 0, 1, 61, 12)"><g clip-path="url(#543f71290f)"><g clip-path="url(#1e7f803b73)"><g clip-path="url(#d407323a74)"><path fill="#00e7ff" d="M 1.121094 0.878906 L 180.609375 0.878906 L 180.609375 265.144531 L 1.121094 265.144531 Z M 1.121094 0.878906 " fill-opacity="1" fill-rule="nonzero"/></g></g></g></g></g></svg>